<?xml version="1.0" standalone="no"?>
<!DOCTYPE svg PUBLIC "-//W3C//DTD SVG 20010904//EN"
 "http://www.w3.org/TR/2001/REC-SVG-20010904/DTD/svg10.dtd">
<svg version="1.0" xmlns="http://www.w3.org/2000/svg"
 width="74.000000pt" height="74.000000pt" viewBox="0 0 74.000000 74.000000"
 preserveAspectRatio="xMidYMid meet">
<metadata>
Created by potrace 1.14, written by Peter Selinger 2001-2017
</metadata>
<g transform="translate(0.000000,74.000000) scale(0.100000,-0.100000)"
fill="#000000" stroke="none">
<path d="M420 573 c-19 -37 -54 -91 -78 -120 -23 -29 -38 -53 -34 -53 16 0
100 69 123 102 16 22 24 49 26 85 2 29 2 53 0 53 -1 0 -18 -30 -37 -67z"/>
<path d="M491 564 c-34 -58 -97 -127 -141 -157 l-25 -17 28 10 c87 30 187 116
186 159 -1 62 -13 63 -48 5z"/>
<path d="M556 539 c-68 -88 -138 -136 -222 -154 l-52 -10 68 -170 68 -170 33
3 c58 5 141 52 199 112 94 97 93 86 21 267 -35 87 -66 161 -70 165 -4 5 -24
-15 -45 -43z"/>
<path d="M80 524 c-28 -26 -50 -52 -50 -58 0 -7 16 -10 44 -8 43 4 44 3 56
-33 7 -20 18 -39 26 -42 8 -3 12 -9 9 -14 -4 -6 89 -244 101 -258 2 -2 23 5
48 15 32 13 44 24 41 34 -3 8 -25 62 -49 120 -28 67 -40 107 -34 111 7 5 1 26
-16 60 -30 61 -34 94 -10 85 9 -4 13 -2 8 5 -4 6 0 15 7 20 9 5 -13 9 -59 9
l-73 0 -49 -46z m180 -118 c0 -5 -3 -7 -6 -3 -3 3 -19 0 -36 -8 -17 -7 -39
-10 -50 -7 -14 3 -9 9 26 26 41 20 43 23 30 41 -8 10 -14 28 -13 39 0 14 9 3
24 -29 13 -27 24 -54 25 -59z"/>
<path d="M210 410 c-8 -5 -10 -10 -5 -10 6 0 17 5 25 10 8 5 11 10 5 10 -5 0
-17 -5 -25 -10z"/>
<path d="M3 235 c-8 -23 2 -28 26 -14 30 19 37 3 20 -44 -31 -82 -31 -83 0
-48 17 19 28 38 25 43 -3 4 -1 8 5 8 12 0 6 37 -10 56 -15 19 -58 18 -66 -1z"/>
<path d="M322 106 l-23 -12 21 -19 c31 -28 25 -35 -35 -35 -30 0 -55 -3 -55
-8 0 -5 79 -8 123 -3 12 1 8 36 -5 50 -10 11 -10 13 0 7 7 -4 12 -1 12 8 0 22
-12 26 -38 12z"/>
<path d="M200 30 c-9 -6 -10 -10 -3 -10 6 0 15 5 18 10 8 12 4 12 -15 0z"/>
</g>
</svg>
